# xmcd
#
# Track frame offsets:
#	150
#	18297
#	37658
#	58798
#	77701
#	95487
#	118976
#	137671
#	157022
#	176863
#	200127
#	222594
#	248362
#	269994
#
# Disc length: 3959 seconds
#
# Revision: 0
# Processed by: cddbd v1.5.2PL0 Copyright (c) Steve Scherf et al.
# Submitted via: EasyCDDAExtractor 16.0.1.1
#
DISCID=d00f750e
DTITLE=Various Artist - 2012 Steppin' Music Vol. 12
DYEAR=2012
DGENRE=R&B
TTITLE0=Willie Hutch - The Way We Were
TTITLE1=Walter and Scotty - Rest My Lips
TTITLE2=Cheryl "Pepsi" Riley - Come Over
TTITLE3=J Holiday ft. Rick Ross - Wrong Lover
TTITLE4=Bobby Valentino - Words
TTITLE5=Love Unlimited Orchestra - Midnight And You
TTITLE6=Avila Brothers ft Shelea - Let It Go
TTITLE7=Simply Red - Holding Back the Years
TTITLE8=Will-I-Am - Lay It Down
TTITLE9=Angela Winbush ft. Ron Isley - Lay Your Troubles Down
TTITLE10=Jeffrey Osborne - Only Human
TTITLE11=Earth, Wind and Fire - Cruising
TTITLE12=Annekei - Arigato Gozaimasu
TTITLE13=Slim Man - Faith In Us
EXTD=
EXTT0=
EXTT1=
EXTT2=
EXTT3=
EXTT4=
EXTT5=
EXTT6=
EXTT7=
EXTT8=
EXTT9=
EXTT10=
EXTT11=
EXTT12=
EXTT13=
PLAYORDER=
